<?xml version="1.0" encoding="UTF-8" standalone="no"?>
<svg
   xmlns:dc="http://purl.org/dc/elements/1.1/"
   xmlns:cc="http://creativecommons.org/ns#"
   xmlns:rdf="http://www.w3.org/1999/02/22-rdf-syntax-ns#"
   xmlns:svg="http://www.w3.org/2000/svg"
   xmlns="http://www.w3.org/2000/svg"
   xmlns:sodipodi="http://sodipodi.sourceforge.net/DTD/sodipodi-0.dtd"
   xmlns:inkscape="http://www.inkscape.org/namespaces/inkscape"
   width="228px"
   height="50px"
   viewBox="0 0 228 50"
   version="1.1"
   id="svg2"
   inkscape:version="0.91 r13725"
   sodipodi:docname="store-logo.svg">
  <metadata
     id="metadata60">
    <rdf:RDF>
      <cc:Work
         rdf:about="">
        <dc:format>image/svg+xml</dc:format>
        <dc:type
           rdf:resource="http://purl.org/dc/dcmitype/StillImage" />
        <dc:title>Chihiro_PSStore_logo</dc:title>
      </cc:Work>
    </rdf:RDF>
  </metadata>
  <sodipodi:namedview
     pagecolor="#b3b3b3"
     bordercolor="#666666"
     borderopacity="1"
     objecttolerance="10"
     gridtolerance="10"
     guidetolerance="10"
     inkscape:pageopacity="0"
     inkscape:pageshadow="2"
     inkscape:window-width="1920"
     inkscape:window-height="1017"
     id="namedview58"
     showgrid="false"
     inkscape:zoom="5.5087719"
     inkscape:cx="88.352541"
     inkscape:cy="-11.098652"
     inkscape:window-x="-8"
     inkscape:window-y="-8"
     inkscape:window-maximized="1"
     inkscape:current-layer="svg2" />
  <!-- Generator: Sketch 47.1 (45422) - http://www.bohemiancoding.com/sketch -->
  <title
     id="title4">Chihiro_PSStore_logo</title>
  <desc
     id="desc6">Created with Sketch.</desc>
  <defs
     id="defs8">
    <linearGradient
       x1="9.44570273%"
       y1="-3.45047418%"
       x2="89.1301314%"
       y2="95.5165437%"
       id="linearGradient-1">
      <stop
         stop-color="#00C0F3"
         offset="0%"
         id="stop11" />
      <stop
         stop-color="#007DC5"
         offset="100%"
         id="stop13" />
    </linearGradient>
  </defs>
  <g
     id="Page-1"
     transform="translate(12.077416,1.9179858)"
     style="fill:none;fill-rule:evenodd;stroke:none;stroke-width:1">
    <g
       id="Chihiro_PSStore_logo">
      <g
         id="g17"
         transform="translate(10,1)">
        <g
           id="Group"
           style="fill-rule:nonzero">
          <path
             d="m 15.783551,1.8998719 c 0.292288,-0.036536 0.584576,0 0.876864,0.146144 -1.936408,2.6671279 -2.301768,7.6725597 -2.338304,9.5724321 l 1.351832,0 c 0.07307,-2.4844484 0.54804,-6.7591602 2.082552,-8.7686401 1.790264,1.8633359 2.92288,5.9553678 3.28824,8.7686401 l 1.351832,0 c -0.36536,-3.0690243 -1.607584,-7.4898802 -3.6536,-9.6820401 0.292288,-0.146144 0.621112,-0.255752 0.949936,-0.255752 0.621112,0 1.205688,0.292288 1.753728,0.9134 1.972944,2.1556239 2.849808,7.1610557 3.032488,9.0243921 l 1.351832,0 C 25.684807,9.5358956 24.807943,4.8227518 22.871535,2.2286959 c -0.9134,-1.24222394 -2.00948,-1.89987191 -3.215168,-1.89987191 -0.803792,0 -1.46144,0.25575199 -2.046016,0.69418401 C 16.952703,0.65764797 16.295055,0.47496798 15.600871,0.54803998 12.020343,0.91339996 11.070408,6.5034077 10.9608,11.581912 l 1.351832,0 C 12.458776,5.6265438 13.701,2.1190879 15.783551,1.8998719 Z"
             id="Shape"
             inkscape:connector-curvature="0" />
          <g
             transform="translate(3.6536,17.171919)"
             id="g23"
             style="fill:#ffffff">
            <g
               transform="translate(16.075839,17.171919)"
               id="g25" />
            <g
               id="g31" />
          </g>
        </g>
      </g>
    </g>
  </g>
  <path
     inkscape:connector-curvature="0"
     style="fill:#ffffff;fill-opacity:1;fill-rule:evenodd"
     class="cls-2"
     id="path-1"
     d="m 51.082062,34.944989 c -0.985558,1.243403 -3.400175,2.13041 -3.400175,2.13041 0,0 -17.962373,6.451957 -17.962373,6.451957 0,0 0,-4.75817 0,-4.75817 0,0 13.219083,-4.710053 13.219083,-4.710053 1.500112,-0.537472 1.730457,-1.297272 0.511117,-1.69608 -1.21705,-0.39995 -3.420802,-0.285351 -4.922057,0.254415 0,0 -8.808143,3.102213 -8.808143,3.102213 0,0 0,-4.9381 0,-4.9381 0,0 0.507678,-0.171902 0.507678,-0.171902 0,0 2.545263,-0.900758 6.124215,-1.297264 3.578949,-0.39423 7.961241,0.05383 11.401531,1.358003 3.87691,1.225067 4.313535,3.031159 3.329124,4.274571 z M 31.429345,26.842786 c 0,0 0,-12.168207 0,-12.168207 0,-1.429057 -0.263581,-2.744665 -1.604398,-3.117114 -1.026813,-0.328896 -1.663989,0.624569 -1.663989,2.052485 0,0 0,30.472076 0,30.472076 0,0 -8.217949,-2.608293 -8.217949,-2.608293 0,0 0,-36.3327067 0,-36.3327067 3.494147,0.648636 8.584666,2.181977 11.321311,3.104506 6.959647,2.3894027 9.319254,5.3632747 9.319254,12.0639227 0,6.531037 -4.031618,9.006396 -9.154229,6.533331 z M 4.8639703,38.271823 c -3.98004995,-1.120792 -4.64243695,-3.456334 -2.828322,-4.801737 1.676595,-1.242262 4.527836,-2.177391 4.527836,-2.177391 0,0 11.7831477,-4.189766 11.7831477,-4.189766 0,0 0,4.776512 0,4.776512 0,0 -8.4792362,3.034603 -8.4792362,3.034603 -1.4978185,0.537472 -1.7281655,1.298414 -0.511115,1.697222 1.2181952,0.398808 3.4230952,0.285359 4.9232062,-0.253264 0,0 4.067145,-1.476046 4.067145,-1.476046 0,0 0,4.273429 0,4.273429 -0.257848,0.04586 -0.545494,0.09168 -0.811365,0.136372 -4.068293,0.664679 -8.40131,0.38735 -12.6712967,-1.019934 z m 43.6006327,1.892039 c 0.514554,0 0.997017,0.199404 1.360299,0.567267 0.363283,0.362134 0.563832,0.845746 0.563832,1.359153 0,0.5157 -0.200549,0.997014 -0.563832,1.359154 -0.363282,0.36558 -0.845745,0.56498 -1.360299,0.56498 -0.514553,0 -0.995873,-0.1994 -1.360301,-0.56498 -0.36328,-0.36214 -0.562682,-0.843454 -0.562682,-1.359154 0,-1.061194 0.861787,-1.92642 1.922983,-1.92642 z m -1.599814,1.92642 c 0,0.42746 0.166169,0.829704 0.468715,1.129954 0.301395,0.30484 0.704787,0.46986 1.131099,0.46986 0.883562,0 1.599812,-0.71739 1.599812,-1.599814 0,-0.428602 -0.165023,-0.830845 -0.468712,-1.132249 -0.301399,-0.30483 -0.70479,-0.468711 -1.1311,-0.468711 -0.426312,0 -0.829704,0.163881 -1.131099,0.468711 -0.302546,0.301404 -0.468715,0.703647 -0.468715,1.132249 z m 2.180834,-1.037129 c 0.210865,0.09283 0.317442,0.271601 0.317442,0.526015 0,0.130643 -0.0275,0.240664 -0.08365,0.326612 -0.04011,0.06187 -0.09741,0.112305 -0.161588,0.15585 0.05042,0.02977 0.09512,0.06533 0.128355,0.106586 0.04584,0.05962 0.0722,0.1547 0.07563,0.2842 0,0 0.01032,0.273894 0.01032,0.273894 0.0035,0.07338 0.008,0.1295 0.0195,0.163876 0.01147,0.0505 0.03323,0.0825 0.06074,0.0928 0,0 0.02865,0.0138 0.02865,0.0138 0,0 0,0.031 0,0.031 0,0 0,0.047 0,0.047 0,0 0,0.047 0,0.047 0,0 -0.04699,0 -0.04699,0 0,0 -0.340361,0 -0.340361,0 0,0 -0.0275,0 -0.0275,0 0,0 -0.01376,-0.0241 -0.01376,-0.0241 -0.01147,-0.0229 -0.01947,-0.0492 -0.0275,-0.0837 -0.0057,-0.031 -0.01147,-0.0848 -0.01491,-0.167315 0,0 -0.0172,-0.340362 -0.0172,-0.340362 -0.0046,-0.118034 -0.0447,-0.191382 -0.120329,-0.230349 -0.04699,-0.02172 -0.124914,-0.03211 -0.230346,-0.03211 0,0 -0.583313,0 -0.583313,0 0,0 0,0.830841 0,0.830841 0,0 0,0.047 0,0.047 0,0 -0.04813,0 -0.04813,0 0,0 -0.277332,0 -0.277332,0 0,0 -0.04698,0 -0.04698,0 0,0 0,-0.047 0,-0.047 0,0 0,-2.047894 0,-2.047894 0,0 0,-0.04699 0,-0.04699 0,0 0.04698,0 0.04698,0 0,0 0.94774,0 0.94774,0 0.162734,0 0.299107,0.02406 0.404538,0.07338 z m -1.026813,0.862942 c 0,0 0.593625,0 0.593625,0 0.119184,0 0.214302,-0.02181 0.281916,-0.06646 0.06188,-0.04465 0.09168,-0.126065 0.09168,-0.244099 0,-0.12835 -0.0424,-0.212012 -0.131788,-0.256708 -0.04927,-0.02406 -0.11804,-0.03782 -0.205136,-0.03782 0,0 -0.630297,0 -0.630297,0 0,0 0,0.605091 0,0.605091 z"
     inkscape:export-xdpi="262.03543"
     inkscape:export-ydpi="262.03543" />
  <path
     style="fill:#ffffff"
     d="m 59.960937,5.141031 c -0.02825,0 -0.05078,0.023351 -0.05078,0.050781 l 0,16.0994423 c 0,0.02502 0.02254,0.04883 0.05078,0.04883 l 2.789033,0 c 0.02582,0 0.04883,-0.02381 0.04883,-0.04883 l 0.002,-14.3514137 c 0,-0.01049 0.0087,-0.023437 0.01758,-0.023437 l 3.189419,-0.00586 c 1.162902,0 1.802717,1.1707107 1.802717,3.2987932 0,2.127276 -0.640155,3.298795 -1.80467,3.298794 l -1.915995,0 c -0.02744,0 -0.04883,0.023 -0.04883,0.04883 l 0,1.667951 c 0,0.02905 0.02139,0.05078 0.04883,0.05078 l 2.753878,0 c 0.964376,0 1.913835,-0.444687 2.605442,-1.222644 0.815886,-0.916762 1.248034,-2.241037 1.248034,-3.830038 0,-3.0827747 -1.512343,-5.0780717 -3.853476,-5.0780718 l -6.882741,-0.00391 z m 12.501823,0 c -0.02663,0 -0.04687,0.023341 -0.04687,0.050781 l 0,16.0994423 c 0,0.02582 0.02024,0.04883 0.04687,0.04883 l 2.789033,0 c 0.02744,0 0.05078,-0.023 0.05078,-0.04883 l 0,-16.0994423 c 0,-0.02744 -0.02334,-0.050781 -0.05078,-0.050781 l -2.789033,0 z m 37.66172,0 -4.11519,0.00195 c -2.59453,0 -4.44722,1.5247414 -4.44722,4.5663587 l 0,0.1269517 c 0,2.4065025 1.47859,4.1372525 3.67769,4.3026895 l 1.37303,0.101561 c 1.04024,0.07909 1.68358,1.009795 1.68359,2.42771 l 0,0.400386 c 0,0.888517 -0.21782,2.501928 -2.11913,2.501927 l -3.87105,0 -0.0762,0 c -0.0266,0 -0.0488,0.02529 -0.0488,0.05273 l 0,1.667952 c 0,0.02583 0.0222,0.04883 0.0488,0.04883 l 4.90425,0 c 1.51233,0 4.04878,-0.612591 4.04878,-4.732373 0,-1.480861 -0.34655,-2.662837 -1.02928,-3.507776 -0.58912,-0.726308 -1.45337,-1.124445 -2.64451,-1.21483 l -1.37498,-0.105468 c -1.02975,-0.09039 -1.79686,-0.660386 -1.79686,-2.3534915 0,-1.9755583 0.88977,-2.5097394 2.06639,-2.5097394 l 3.80269,0 c 0.0258,0 0.0469,-0.023341 0.0469,-0.050781 l 0,-1.6738107 c 0,-0.02663 -0.0211,-0.050781 -0.0469,-0.050781 l -0.0781,0 -0.004,0 z m 30.33952,0 c -0.0258,0 -0.0488,0.023341 -0.0488,0.050781 l 0,2.33396 c 0,0.02744 0.023,0.050781 0.0488,0.050781 l 2.79099,0 c 0.0258,0 0.0469,-0.023341 0.0469,-0.050781 l 0,-2.33396 c 0,-0.02744 -0.0211,-0.050781 -0.0469,-0.050781 l -2.79099,0 z m -27.18331,1.7753721 c -0.0274,0 -0.0508,0.022198 -0.0508,0.048828 l 0,10.6854362 c 0,2.138573 1.33051,3.689414 3.16403,3.689414 l 1.99998,0 c 0.0266,0 0.0508,-0.02381 0.0508,-0.04883 l 0,-1.669905 c 0,-0.02744 -0.0242,-0.05078 -0.0508,-0.05078 l -1.23046,0 c -0.3123,-0.0048 -1.04686,-0.02121 -1.04686,-1.595687 l 0,-7.185472 c 0,-0.0089 0.01,-0.01562 0.0195,-0.01562 0.92322,0.0032 3.0195,0 3.0195,0 0.0266,0 0.0488,-0.02496 0.0488,-0.05078 l 0,-1.664045 c 0,-0.02744 -0.0222,-0.048828 -0.0488,-0.048828 l -3.0195,0 c -0.01,0 -0.0156,-0.00984 -0.0156,-0.019531 l -0.004,-0.00977 0.004,-2.015604 c 0,-0.02663 -0.0242,-0.048828 -0.0508,-0.048828 l -2.78903,0 z m 19.48417,0 c -0.0282,0 -0.0547,0.022198 -0.0547,0.048828 l 0,10.6854362 c 0,2.138573 1.33326,3.689414 3.16598,3.689414 l 2.00194,0 c 0.0282,0 0.0488,-0.02381 0.0488,-0.04883 l 0,-1.669905 c 0,-0.02744 -0.0206,-0.05078 -0.0488,-0.05078 l -1.23046,0 c -0.31393,-0.0048 -1.04687,-0.02121 -1.04687,-1.595687 l 0,-7.185472 c 0,-0.0089 0.008,-0.01562 0.0176,-0.01562 0.92322,0.0032 3.02145,0 3.02145,0 0.0274,0 0.0488,-0.02496 0.0488,-0.05078 l 0,-1.664045 c 0,-0.02744 -0.0214,-0.048828 -0.0488,-0.048828 l -3.0195,0 c -0.009,0 -0.0176,-0.00984 -0.0176,-0.019531 l -0.002,-0.00977 0.002,-2.015604 c 0,-0.02663 -0.0238,-0.048828 -0.0488,-0.048828 l -2.78904,0 z M 82.402109,9.0101313 c -4.452269,0 -5.021432,3.2801337 -5.021432,6.1522797 l 0,2.486303 c 0,2.140188 1.330505,3.691367 3.16403,3.691367 l 2.708956,0 c 0.02905,0 0.04883,-0.02381 0.04883,-0.04883 l 0,-1.669905 c 0,-0.02986 -0.01977,-0.05078 -0.04883,-0.05078 l -1.93748,0.0039 c -0.449503,-0.0097 -1.048817,-0.200362 -1.048817,-1.730451 l 0,-2.681613 c -0.0016,-1.785911 0.167622,-2.923732 0.533197,-3.574181 0.400277,-0.718239 1.03664,-0.810539 1.601546,-0.810539 l 2.126931,0 c 0.01049,0 0.01953,0.01134 0.01953,0.02344 l -0.0039,10.490126 c 0,0.02502 0.02254,0.04883 0.05078,0.04883 l 2.78708,0 c 0.02583,0 0.04883,-0.02381 0.04883,-0.04883 l 0,-12.156124 0,-0.076171 c 0,-0.02744 -0.02253,-0.048828 -0.05078,-0.048828 l -4.978464,0 z m 6.599541,0 c -0.02663,0 -0.04126,0.021055 -0.0332,0.046875 L 93.10317,21.177973 c 0.0081,0.02663 0.0074,0.06954 -0.0039,0.09375 l -2.322241,6.011656 c -0.01049,0.02421 0.0046,0.04687 0.03125,0.04687 l 2.423803,0 c 0.02825,0 0.06063,-0.02266 0.07031,-0.04687 L 100.5738,9.0570058 c 0.009,-0.02582 -0.002,-0.046875 -0.0332,-0.046875 l -2.646465,0 c -0.02824,0 -0.05901,0.021055 -0.07031,0.046875 L 94.743778,17.02372 c -0.0113,0.02744 -0.02467,0.02663 -0.03516,0 L 91.997712,9.0570058 c -0.0097,-0.02582 -0.03931,-0.046875 -0.06836,-0.046875 l -2.927704,0 z m 36.34533,0 c -4.45228,0 -5.0273,3.2801337 -5.0273,6.1522797 l 0.004,2.486303 c 0,2.140188 1.33179,3.691367 3.16208,3.691367 l 2.70895,0 c 0.029,0 0.0527,-0.02381 0.0527,-0.04883 l 0,-1.669905 c 0,-0.02986 -0.0237,-0.05078 -0.0527,-0.05078 l -1.93552,0.0039 c -0.45273,-0.0097 -1.04721,-0.200362 -1.04882,-1.730451 l 0,-2.681613 c -8.1e-4,-1.785911 0.166,-2.923732 0.53319,-3.574181 0.40108,-0.718239 1.03388,-0.810539 1.5996,-0.810539 l 2.12889,0 c 0.01,0 0.0176,0.01134 0.0176,0.02344 l -0.002,10.490126 c 0,0.02502 0.023,0.04883 0.0488,0.04883 l 2.78904,0 c 0.0258,0 0.0488,-0.02381 0.0488,-0.04883 l 0,-12.232295 c 0,-0.02744 -0.023,-0.048828 -0.0488,-0.048828 l -4.97846,0 z m 15.11702,0 c -0.0258,0 -0.0488,0.021388 -0.0488,0.048828 l 0,12.232295 c 0,0.02502 0.023,0.04883 0.0488,0.04883 l 2.79099,0 c 0.0258,0 0.0469,-0.02381 0.0469,-0.04883 l 0,-12.232295 c 0,-0.02744 -0.0211,-0.048828 -0.0469,-0.048828 l -2.79099,0 z m 9.94912,0 c -4.65888,0 -5.25776,3.2965657 -5.25776,6.1679037 0,2.87376 0.59969,6.171811 5.25776,6.171811 4.66048,0 5.25776,-3.298051 5.25776,-6.171811 0,-2.871338 -0.59809,-6.1679037 -5.25776,-6.1679037 z m 7.15031,0 c -0.0258,0 -0.0488,0.021388 -0.0488,0.048828 l -0.002,12.232295 c 0,0.02502 0.025,0.04883 0.0508,0.04883 l 2.78708,0 c 0.0283,0 0.0508,-0.02381 0.0508,-0.04883 l -0.006,-10.495985 c 0,-0.0097 0.0102,-0.01953 0.0215,-0.01953 l 2.12693,0 c 0.56652,0 1.20162,0.091 1.6035,0.751945 0.36316,0.603643 0.53515,1.654062 0.53515,3.312466 0.002,0.07263 -0.006,6.451105 -0.006,6.451105 0,0.02502 0.0245,0.04883 0.0527,0.04883 l 2.78708,0 c 0.0291,0 0.0508,-0.02381 0.0508,-0.04883 l 0,-6.128843 c 0,-2.872147 -0.57078,-6.1522797 -5.02143,-6.1522797 l -0.002,0 -4.98042,0 z m -7.15031,1.7675597 c 0.71178,0 1.16307,0.143474 1.5117,0.482417 0.58346,0.577012 0.8496,1.784196 0.8496,3.917927 0,1.793982 -0.18713,2.934645 -0.58983,3.585901 -0.43901,0.719852 -1.14443,0.81835 -1.77147,0.81835 -0.62544,0 -1.32599,-0.09849 -1.77147,-0.81835 -0.40027,-0.65287 -0.58593,-1.791919 -0.58593,-3.585901 l 0,-0.01367 c 0,-2.122432 0.25854,-3.327243 0.84765,-3.904255 0.3446,-0.338943 0.79796,-0.482417 1.50975,-0.482417 z m 18.36699,8.392491 0,0.246091 0.7168,0 0,1.925761 0.28319,0 0,-1.925761 0.70898,0 0,-0.246091 -1.70897,0 z m 1.98631,0 0,2.171852 0.2832,0 0,-1.765607 0.5957,1.765607 0.28515,0 0.5957,-1.765607 0,1.765607 0.2832,0 0,-2.171852 -0.39257,0 -0.62891,1.849589 -0.62694,-1.849589 -0.39453,0 z M 65.402287,27.330253 c -2.452501,0 -5.26557,1.271108 -5.26557,4.267533 0,2.155523 1.383791,3.541044 4.154253,4.652296 2.45008,0.999077 3.880819,1.839267 3.880819,3.496057 0,1.814963 -1.476351,2.679659 -3.427698,2.679659 -1.271847,0 -2.859874,-0.318603 -4.335893,-1.044911 l -0.498042,1.701154 c 1.520405,0.681923 3.35704,0.99999 4.78706,0.99999 2.67927,0 5.449161,-1.272818 5.449161,-4.472609 0,-2.519482 -1.59084,-3.743122 -4.654247,-4.923777 -2.520291,-0.976481 -3.380825,-1.772767 -3.380825,-3.224575 0,-1.885175 1.725349,-2.474585 3.267544,-2.474585 1.20325,0 2.429761,0.228095 3.564416,0.681634 l 0.476558,-1.656232 C 68.263379,27.55754 66.832307,27.330253 65.402287,27.330253 Z m 7.443281,1.476547 0,3.017547 -2.13279,0 0,1.521468 2.13279,0 0,7.28508 c 0,2.132926 0.407381,3.337856 2.904267,3.337856 0.634309,0 1.384637,-0.09237 1.816387,-0.160154 l 0,-1.451157 c -0.409154,0.0452 -0.748529,0.08984 -1.271471,0.08984 -1.361425,0 -1.519515,-0.296281 -1.519515,-1.929668 l 0,-7.1718 2.767549,0 0,-1.521468 -2.767549,0 0,-3.017547 -1.929668,0 z m 23.079838,2.744112 c -1.543004,0 -2.540093,0.613706 -3.130827,1.884746 l -0.02539,0 0,-1.611311 -1.859355,0 0,11.98425 1.929668,0 0,-7.011646 c 0,-2.791445 1.271484,-3.722617 2.861298,-3.722617 0.384936,0 0.724459,0.02041 0.998036,0.06641 l 0.08984,-1.542953 c -0.341367,-0.04681 -0.658295,-0.04687 -0.863272,-0.04687 z m 6.173764,0 c -3.336177,0 -5.402288,2.657455 -5.402288,6.288997 0,3.562946 2.087575,6.242122 6.060478,6.242122 1.24764,0 2.58683,-0.203815 3.58591,-0.634758 l -0.31641,-1.476548 c -0.9321,0.38575 -2.1109,0.589838 -3.22458,0.589838 -2.54207,0 -4.1077,-1.656791 -4.244089,-4.220659 l 8.509679,0 0,-0.931631 c 0,-3.541963 -1.60993,-5.857361 -4.9687,-5.857361 z m -18.314263,0.002 c -3.426562,0 -5.562442,2.33828 -5.562442,6.24017 0,3.905117 2.13588,6.288996 5.562442,6.288996 3.427364,0 5.560489,-2.383879 5.560489,-6.288996 0,-3.90189 -2.133125,-6.24017 -5.560489,-6.24017 z m 0,1.519516 c 2.497694,0 3.630822,1.953419 3.630822,4.720654 0,2.793864 -1.133128,4.767528 -3.630822,4.767528 -2.451695,0 -3.632774,-1.973664 -3.632774,-4.767528 0,-2.767235 1.135886,-4.720654 3.632774,-4.720654 z m 18.335743,0 c 1.90858,0 3.20115,1.362352 3.20115,3.654258 l 0,0.0918 -6.763609,0 c 0.204178,-2.20152 1.406944,-3.746054 3.562459,-3.746054 z"
     id="Fill-35"
     inkscape:connector-curvature="0"
     inkscape:export-xdpi="262.03543"
     inkscape:export-ydpi="262.03543" />
</svg>
